<?xml version="1.0" encoding="UTF-8"?>
<svg xmlns="http://www.w3.org/2000/svg" width="1024" height="1024" viewBox="0 0 1024 1024" role="img" aria-labelledby="title desc">
  <title id="title">Timeline App Icon Mark</title>
  <desc id="desc">Inner mark only, converted to editable vector paths.</desc>
  <g id="timeline-app-icon-mark">
  <path id="shape-shadow" fill="#163E64" fill-opacity="0.612" stroke="none" d="M 755.394,93.558 C 605.916,56.637 257.852,340.895 185.563,477.707 113.393,614.4 251.4,831.388 321.538,914.072 391.558,996.638 489.417,975.488 582.139,956.729 674.741,938.089 739.622,816.093 797.692,693.978 855.763,571.624 937.731,323.809 930.8,223.679 923.751,123.669 904.872,130.599 755.394,93.558 L 755.394,93.558 Z "/>
  <path id="main-peach-shape" fill="#F2AA84" stroke="none" d="M 703.179,64.881 C 553.701,27.96 205.636,312.218 133.347,449.031 61.177,585.723 199.184,802.711 269.323,885.396 339.342,967.961 437.201,946.812 529.923,928.052 622.525,909.412 687.406,787.417 745.477,665.301 803.547,542.947 885.515,295.132 878.585,195.002 871.535,94.992 852.656,101.922 703.179,64.881 L 703.179,64.881 Z "/>
  <path id="orange-timeline-tail" fill="#C04F15" stroke="none" d="M 471.375,410.317 L 450.345,434.095 467.312,565.052 540.916,853.134 506.982,508.774 506.384,433.975 471.375,410.317 471.375,410.317 Z "/>
  <path id="orange-timeline-head" fill="#C04F15" stroke="none" d="M 754.797,205.278 C 760.054,208.624 645.825,277.328 571.863,352.007 519.647,374.232 496.228,388.69 485.593,400.639 L 484.279,402.55 485.593,440.547 473.645,439.83 471.972,446.163 C 470.06,450.823 467.193,455.961 462.652,461.696 L 327.393,593.609 430.391,376.144 632.442,272.429 752.168,205.397 C 753.602,205.158 754.438,205.158 754.797,205.278 L 754.797,205.278 Z "/>
  <path id="blue-timeline-tail" fill="#156082" stroke="none" d="M 458.231,400.519 L 437.201,424.297 454.168,555.254 527.772,843.336 493.838,498.976 493.241,424.177 458.231,400.519 458.231,400.519 Z "/>
  <path id="blue-timeline-head" fill="#156082" stroke="none" d="M 741.653,195.48 C 746.911,198.826 632.681,267.53 558.719,342.21 506.504,364.434 483.084,378.892 472.45,390.841 L 471.136,392.752 472.45,430.749 460.501,430.032 458.828,436.365 C 456.917,441.025 454.049,446.163 449.509,451.898 L 314.25,583.811 417.247,366.346 619.299,262.632 739.025,195.6 C 740.458,195.361 741.295,195.361 741.653,195.48 L 741.653,195.48 Z "/>
  </g>
</svg>
