<?xml version="1.0" encoding="UTF-8"?>
<svg xmlns="http://www.w3.org/2000/svg" width="1024" height="1024" viewBox="0 0 1024 1024" role="img" aria-labelledby="title desc">
  <title id="title">Timeline App Icon</title>
  <desc id="desc">Clean vector SVG converted from the supplied PowerPoint app icon. All artwork is editable path geometry; no raster images or embedded fonts.</desc>
  <g id="timeline-app-icon">
  <path id="background-fill" fill="#FFFFFF" stroke="none" d="M 3.226,172.778 L 3.226,172.778 C 3.226,143.025 11.112,113.751 25.929,87.942 40.864,62.253 62.253,40.864 88.062,25.929 113.751,10.993 143.025,3.226 172.778,3.226 L 850.983,3.226 850.983,3.226 C 880.736,3.226 910.01,11.112 935.819,25.929 961.509,40.864 982.897,62.253 997.832,88.062 1012.768,113.751 1020.535,143.025 1020.535,172.778 L 1020.535,172.778 1020.654,850.983 1020.654,850.983 C 1020.654,880.736 1012.768,910.01 997.952,935.819 983.016,961.509 961.628,982.897 935.819,997.832 910.129,1012.768 880.855,1020.535 851.103,1020.535 L 172.778,1020.654 172.778,1020.654 C 143.025,1020.654 113.751,1012.768 87.942,997.952 62.253,983.016 40.864,961.628 25.929,935.819 10.993,910.129 3.226,880.855 3.226,851.103 L 3.226,172.778 Z "/>
  <path id="background-outline" fill="none" stroke="#092A38" stroke-width="6.333" stroke-linejoin="miter" d="M 3.226,172.778 L 3.226,172.778 C 3.226,143.025 11.112,113.751 25.929,87.942 40.864,62.253 62.253,40.864 88.062,25.929 113.751,10.993 143.025,3.226 172.778,3.226 L 850.983,3.226 850.983,3.226 C 880.736,3.226 910.01,11.112 935.819,25.929 961.509,40.864 982.897,62.253 997.832,88.062 1012.768,113.751 1020.535,143.025 1020.535,172.778 L 1020.535,172.778 1020.654,850.983 1020.654,850.983 C 1020.654,880.736 1012.768,910.01 997.952,935.819 983.016,961.509 961.628,982.897 935.819,997.832 910.129,1012.768 880.855,1020.535 851.103,1020.535 L 172.778,1020.654 172.778,1020.654 C 143.025,1020.654 113.751,1012.768 87.942,997.952 62.253,983.016 40.864,961.628 25.929,935.819 10.993,910.129 3.226,880.855 3.226,851.103 L 3.226,172.778 Z "/>
  <path id="shape-shadow" fill="#163E64" fill-opacity="0.612" stroke="none" d="M 755.394,93.558 C 605.916,56.637 257.852,340.895 185.563,477.707 113.393,614.4 251.4,831.388 321.538,914.072 391.558,996.638 489.417,975.488 582.139,956.729 674.741,938.089 739.622,816.093 797.692,693.978 855.763,571.624 937.731,323.809 930.8,223.679 923.751,123.669 904.872,130.599 755.394,93.558 L 755.394,93.558 Z "/>
  <path id="main-peach-shape" fill="#F2AA84" stroke="none" d="M 703.179,64.881 C 553.701,27.96 205.636,312.218 133.347,449.031 61.177,585.723 199.184,802.711 269.323,885.396 339.342,967.961 437.201,946.812 529.923,928.052 622.525,909.412 687.406,787.417 745.477,665.301 803.547,542.947 885.515,295.132 878.585,195.002 871.535,94.992 852.656,101.922 703.179,64.881 L 703.179,64.881 Z "/>
  <path id="orange-timeline-tail" fill="#C04F15" stroke="none" d="M 471.375,410.317 L 450.345,434.095 467.312,565.052 540.916,853.134 506.982,508.774 506.384,433.975 471.375,410.317 471.375,410.317 Z "/>
  <path id="orange-timeline-head" fill="#C04F15" stroke="none" d="M 754.797,205.278 C 760.054,208.624 645.825,277.328 571.863,352.007 519.647,374.232 496.228,388.69 485.593,400.639 L 484.279,402.55 485.593,440.547 473.645,439.83 471.972,446.163 C 470.06,450.823 467.193,455.961 462.652,461.696 L 327.393,593.609 430.391,376.144 632.442,272.429 752.168,205.397 C 753.602,205.158 754.438,205.158 754.797,205.278 L 754.797,205.278 Z "/>
  <path id="blue-timeline-tail" fill="#156082" stroke="none" d="M 458.231,400.519 L 437.201,424.297 454.168,555.254 527.772,843.336 493.838,498.976 493.241,424.177 458.231,400.519 458.231,400.519 Z "/>
  <path id="blue-timeline-head" fill="#156082" stroke="none" d="M 741.653,195.48 C 746.911,198.826 632.681,267.53 558.719,342.21 506.504,364.434 483.084,378.892 472.45,390.841 L 471.136,392.752 472.45,430.749 460.501,430.032 458.828,436.365 C 456.917,441.025 454.049,446.163 449.509,451.898 L 314.25,583.811 417.247,366.346 619.299,262.632 739.025,195.6 C 740.458,195.361 741.295,195.361 741.653,195.48 L 741.653,195.48 Z "/>
  </g>
</svg>
